<svg xmlns="http://www.w3.org/2000/svg" viewBox="0 0 32 32" width="32" height="32">
  <defs>
    <linearGradient id="cartGradient" x1="0%" y1="0%" x2="100%" y2="100%">
      <stop offset="0%" style="stop-color:#ff6b6b;stop-opacity:1" />
      <stop offset="100%" style="stop-color:#ff5252;stop-opacity:1" />
    </linearGradient>
  </defs>

  <!-- 購物車主體 -->
  <path fill="url(#cartGradient)" d="M 10 8 L 12 8 L 14 20 L 26 20 L 28 12 L 16 12 L 15.5 10 L 29 10 C 29.5 10 30 10.5 30 11 L 28 21 C 28 21.5 27.5 22 27 22 L 13 22 L 11 8 L 8 8 L 8 6 L 12 6 C 12.5 6 12.8 6.3 13 6.7 L 10 8 Z"/>

  <!-- 購物車輪子 -->
  <circle fill="url(#cartGradient)" cx="15" cy="26" r="2"/>
  <circle fill="url(#cartGradient)" cx="25" cy="26" r="2"/>

  <!-- 裝飾性星星 -->
  <path fill="#ffd700" d="M 5 4 L 5.5 5.5 L 7 6 L 5.5 6.5 L 5 8 L 4.5 6.5 L 3 6 L 4.5 5.5 Z"/>
</svg>
